<svg xmlns="http://www.w3.org/2000/svg" xmlns:xlink="http://www.w3.org/1999/xlink" width="20.537" height="20" viewBox="0 0 20.537 20"><defs><clipPath id="a"><path d="M0,0H4.427V7.331H0Z" fill="none"/></clipPath></defs><path d="M4.433,20A4.439,4.439,0,0,1,0,15.565V4.436A4.44,4.44,0,0,1,4.433,0H9.308a4.441,4.441,0,0,1,4.436,4.436v.931a.75.75,0,1,1-1.5,0V4.436A2.938,2.938,0,0,0,9.308,1.5H4.433A2.937,2.937,0,0,0,1.5,4.436V15.565A2.938,2.938,0,0,0,4.433,18.5H9.319a2.928,2.928,0,0,0,2.925-2.924v-.943a.75.75,0,0,1,1.5,0v.943A4.43,4.43,0,0,1,9.319,20Zm11.894-6.555a.75.75,0,0,1,0-1.06l1.641-1.635H7.745a.75.75,0,0,1,0-1.5H17.972L16.33,7.616a.749.749,0,1,1,1.058-1.062l2.913,2.9a.747.747,0,0,1,.235.508v.005s0,.009,0,.013,0,.013,0,.019,0,.013,0,.019,0,.008,0,.013v.006a.745.745,0,0,1-.049.231v0l0,.011,0,.007,0,.007,0,.011v0a.738.738,0,0,1-.111.175.756.756,0,0,1-.057.06l-2.914,2.9a.75.75,0,0,1-1.06,0Z"/><g transform="translate(16.109 6.335)"><path d="M0,0H4.427V7.331H0Z" fill="none"/></g></svg>